# xmcd
#
# Track frame offsets: 
#        182
#        22747
#        38172
#        67540
#        82170
#        95090
#        114870
#        132932
#        153280
#        173687
#
# Disc length: 2516 seconds
#
# Revision: 2
# Processed by: cddbd v1.5.2PL0 Copyright (c) Steve Scherf et al.
# Submitted via: ExactAudioCopy v0.99pb4
#
DISCID=6c09d20a
DTITLE=Johnny Gale - Gale Force
DYEAR=1994
DGENRE=Blues/Rock
TTITLE0=Boom Boom
TTITLE1=I'm Cryin'
TTITLE2=Daddy Long Legs
TTITLE3=Workin' On You
TTITLE4=Cruel and Unsual Love
TTITLE5=I'm Tore Down
TTITLE6=Confused
TTITLE7=Pretty Girls Everywhere
TTITLE8=Can't Slow Down
TTITLE9=Custom Made
EXTD=
EXTT0=
EXTT1=
EXTT2=
EXTT3=
EXTT4=
EXTT5=
EXTT6=
EXTT7=
EXTT8=
EXTT9=
PLAYORDER=
